<svg xmlns="http://www.w3.org/2000/svg" xmlns:svg="http://www.w3.org/2000/svg" id="svg16" width="512" height="512" class="st2" version="1.1" viewBox="0 0 384 384" xml:space="preserve" style="font-size:12px;overflow:visible;color-interpolation-filters:sRGB;fill:none;fill-rule:evenodd;stroke-linecap:square;stroke-miterlimit:3"><metadata id="metadata22"/><style id="style2" type="text/css">.st1{fill:#d7d7d7;stroke:none;stroke-linecap:butt;stroke-width:.612}.st2{fill:none;fill-rule:evenodd;font-size:12px;overflow:visible;stroke-linecap:square;stroke-miterlimit:3}</style><g id="g14" transform="translate(0.216115,59.021925)"><title id="title4">页-1</title><g id="group273-1"><title id="title6">工作表.273</title><g id="shape274-2" transform="translate(57.424,-14.7521)"><title id="title8">工作表.274</title><path id="path10" d="M 252.59,29.48 H 16.13 C 7.22,29.48 0,36.7 0,45.61 v 204.24 c 0,8.91 7.22,16.13 16.13,16.13 h 236.46 c 8.91,0 16.13,-7.22 16.13,-16.13 V 45.61 c 0,-8.91 -7.22,-16.13 -16.13,-16.13 z m -40.31,10.74 c 5.94,0 10.74,4.79 10.74,10.74 0,5.94 -4.8,10.73 -10.74,10.73 -5.94,0 -10.74,-4.79 -10.74,-10.73 0,-5.95 4.85,-10.74 10.74,-10.74 z m -29.57,0 c 5.95,0 10.74,4.79 10.74,10.74 0,5.94 -4.84,10.73 -10.74,10.73 -5.94,0 -10.74,-4.79 -10.74,-10.73 0,-5.95 4.85,-10.74 10.74,-10.74 z M 87.79,249.8 c 3.84,-22.25 23.22,-39.26 46.57,-39.26 23.36,0 42.73,16.96 46.57,39.26 z m 164.8,-6.08 c 0,-5.21 -4.25,-9.37 -9.46,-9.37 h -17.18 c -2.24,-8.59 -5.71,-16.9 -10.15,-24.4 l 12.2,-12.2 c 3.71,-3.7 3.71,-9.69 0,-13.39 l -20.06,-20.11 c -3.7,-3.7 -9.69,-3.7 -13.39,0 l -12.25,12.2 c -7.54,-4.43 -15.81,-7.91 -24.4,-10.14 v -17.19 c 0,-5.21 -4.11,-9.46 -9.37,-9.46 h -28.34 c -5.21,0 -9.32,4.25 -9.32,9.46 v 17.19 c -8.59,2.23 -16.91,5.71 -24.4,10.14 l -12.21,-12.2 c -3.7,-3.7 -9.68,-3.7 -13.39,0 l -20.06,20.06 c -3.7,3.7 -3.7,9.69 0,13.39 l 12.2,12.25 c -4.43,7.54 -7.9,15.81 -10.14,24.4 H 25.59 c -5.21,0 -9.46,4.12 -9.46,9.37 V 72.48 H 252.59 Z M 241.85,61.69 c -5.94,0 -10.74,-4.79 -10.74,-10.73 0,-5.95 4.85,-10.74 10.74,-10.74 5.94,0 10.74,4.79 10.74,10.74 0,5.94 -4.8,10.73 -10.74,10.73 z" class="st1" style="fill:#d7d7d7;stroke:none;stroke-width:.61199999;stroke-linecap:butt"/></g></g></g></svg>