<svg xmlns="http://www.w3.org/2000/svg" xmlns:svg="http://www.w3.org/2000/svg" id="svg39" width="512" height="512" class="st4" version="1.1" viewBox="0 0 384 384" xml:space="preserve" style="font-size:12px;overflow:visible;color-interpolation-filters:sRGB;fill:none;fill-rule:evenodd;stroke-linecap:square;stroke-miterlimit:3"><metadata id="metadata45"/><style id="style2" type="text/css">.st1{fill:#d7d7d7;stroke:none;stroke-linecap:butt;stroke-width:1.37143}.st2,.st3{stroke-linecap:round;stroke-linejoin:round}.st2{fill:#d7d7d7;stroke:#fff;stroke-width:.5}.st3{stroke:#d7d7d7;stroke-width:20}.st4{fill:none;fill-rule:evenodd;font-size:12px;overflow:visible;stroke-linecap:square;stroke-miterlimit:3}</style><g id="g37" transform="translate(2.833615,54.417725)"><title id="title4">页-1</title><g id="group24-1"><title id="title6">工作表.24</title><g id="group25-2" transform="translate(28.3465,-17.0079)"><title id="title8">工作表.25</title><g id="shape26-3"><title id="title10">工作表.26</title><path id="path12" d="M 210.25,43.2 H 111.39 C 49.97,43.2 0,93.17 0,154.59 0,216.01 49.97,265.98 111.39,265.98 h 98.86 c 61.42,0 111.39,-49.97 111.39,-111.39 C 321.64,93.17 271.67,43.2 210.25,43.2 Z m 0,202.1 h -98.86 c -50.02,0 -90.71,-40.69 -90.71,-90.71 0,-50.02 40.69,-90.72 90.71,-90.72 h 98.86 c 50.02,0 90.71,40.7 90.71,90.72 0,50.02 -40.69,90.71 -90.71,90.71 z" class="st1" style="fill:#d7d7d7;stroke:none;stroke-width:1.37143004;stroke-linecap:butt"/></g></g><g id="shape28-5" transform="translate(132.337,-62.3622)"><title id="title16">工作表.28</title><rect id="rect18" width="119.327" height="23.134" x="0" y="242.846" class="st2" rx="11.567" ry="11.567" style="fill:#d7d7d7;stroke:#fff;stroke-width:.5;stroke-linecap:round;stroke-linejoin:round"/></g><g id="shape30-7" transform="rotate(90,188.1258,269.8542)"><title id="title21">工作表.30</title><path id="path23" d="M 0,265.98 H 76.54" class="st3" style="stroke:#d7d7d7;stroke-width:20;stroke-linecap:round;stroke-linejoin:round"/></g><g id="shape79-10" transform="rotate(135.754,138.20803,242.89054)"><title id="title26">工作表.79</title><path id="path28" d="M 0,265.98 H 40.63" class="st3" style="stroke:#d7d7d7;stroke-width:20;stroke-linecap:round;stroke-linejoin:round"/></g><g id="shape80-13" transform="rotate(45,246.33817,394.84591)"><title id="title31">工作表.80</title><path id="path33" d="M 0,265.98 H 40.63" class="st3" style="stroke:#d7d7d7;stroke-width:20;stroke-linecap:round;stroke-linejoin:round"/></g></g></g></svg>