<svg xmlns="http://www.w3.org/2000/svg" xmlns:svg="http://www.w3.org/2000/svg" id="svg16" width="512" height="256" class="st2" version="1.1" viewBox="0 0 384 192" xml:space="preserve" style="font-size:12px;overflow:visible;color-interpolation-filters:sRGB;fill:none;fill-rule:evenodd;stroke-linecap:square;stroke-miterlimit:3"><metadata id="metadata22"/><style id="style2" type="text/css">.st1{fill:#d7d7d7;stroke:none;stroke-linecap:butt;stroke-width:6.12}.st2{fill:none;fill-rule:evenodd;font-size:12px;overflow:visible;stroke-linecap:square;stroke-miterlimit:3}</style><g id="g14" transform="translate(8.441325,-5.949335)"><title id="title4">页-1</title><g id="group309-1"><title id="title6">工作表.309</title><g id="shape310-2" transform="translate(42.3938,-19.6008)"><title id="title8">工作表.310</title><path id="path10" d="m 281.93,204.17 c -21.67,0 -28.51,-35.69 -37.18,-80.89 -4.12,-21.47 -11.71,-61.1 -19.14,-65.83 -7.43,4.73 -15.03,44.36 -19.15,65.83 -8.66,45.2 -15.5,80.89 -37.18,80.89 -21.66,0 -28.5,-35.69 -37.16,-80.88 C 128.01,101.82 120.42,62.21 113,57.45 105.57,62.2 97.98,101.82 93.86,123.29 85.2,168.48 78.36,204.17 56.7,204.17 35.04,204.17 28.19,168.48 19.54,123.28 15.34,101.42 7.55,60.73 0,57.22 L 0.41,38.93 c 21.66,0 28.49,35.7 37.15,80.89 4.12,21.46 11.71,61.08 19.13,65.84 7.42,-4.76 15.02,-44.37 19.13,-65.83 8.67,-45.2 15.5,-80.9 37.17,-80.9 21.66,0 28.5,35.7 37.16,80.9 4.11,21.46 11.7,61.07 19.12,65.83 7.43,-4.74 15.03,-44.37 19.15,-65.84 8.66,-45.19 15.5,-80.89 37.18,-80.89 21.67,0 28.51,35.7 37.17,80.9 4.2,21.86 12,62.56 19.56,66.06 z" class="st1" style="fill:#d7d7d7;stroke:none;stroke-width:6.11999989;stroke-linecap:butt"/></g></g></g></svg>