<svg xmlns="http://www.w3.org/2000/svg" id="Glyph" width="512" height="512" viewBox="0 0 64 64"><g><path fill="#D7D7D7" d="m11 29a1 1 0 0 0 1 1h12a1 1 0 0 0 1-1v-3h24v-2h-24v-3a1 1 0 0 0 -1-1h-12a1 1 0 0 0 -1 1v3h-4v2h4z" class="active-path" data-old_color="#000000" data-original="#000000"/><path fill="#D7D7D7" d="m11 10h2v2h-2z" class="active-path" data-old_color="#000000" data-original="#000000"/><path fill="#D7D7D7" d="m7 10h2v2h-2z" class="active-path" data-old_color="#000000" data-original="#000000"/><path fill="#D7D7D7" d="m3 10h2v2h-2z" class="active-path" data-old_color="#000000" data-original="#000000"/><path fill="#D7D7D7" d="m59 10h2v2h-2z" class="active-path" data-old_color="#000000" data-original="#000000"/><path fill="#D7D7D7" d="m55 10h2v2h-2z" class="active-path" data-old_color="#000000" data-original="#000000"/><path fill="#D7D7D7" d="m53 10h-4v-3a1 1 0 0 0 -1-1h-12a1 1 0 0 0 -1 1v3h-20v2h20v3a1 1 0 0 0 1 1h12a1 1 0 0 0 1-1v-3h4z" class="active-path" data-old_color="#000000" data-original="#000000"/><path fill="#D7D7D7" d="m12 38h2v2h-2z" class="active-path" data-old_color="#000000" data-original="#000000"/><path fill="#D7D7D7" d="m8 38h2v2h-2z" class="active-path" data-old_color="#000000" data-original="#000000"/><path fill="#D7D7D7" d="m4 38h2v2h-2z" class="active-path" data-old_color="#000000" data-original="#000000"/><path fill="#D7D7D7" d="m60 38h2v2h-2z" class="active-path" data-old_color="#000000" data-original="#000000"/><path fill="#D7D7D7" d="m58 38h-8v-3a1 1 0 0 0 -1-1h-12a1 1 0 0 0 -1 1v3h-20v2h20v3a1 1 0 0 0 1 1h12a1 1 0 0 0 1-1v-3h8z" class="active-path" data-old_color="#000000" data-original="#000000"/><path fill="#D7D7D7" d="m3 24h2v2h-2z" class="active-path" data-old_color="#000000" data-original="#000000"/><path fill="#D7D7D7" d="m59 24h2v2h-2z" class="active-path" data-old_color="#000000" data-original="#000000"/><path fill="#D7D7D7" d="m55 24h2v2h-2z" class="active-path" data-old_color="#000000" data-original="#000000"/><path fill="#D7D7D7" d="m51 24h2v2h-2z" class="active-path" data-old_color="#000000" data-original="#000000"/><path fill="#D7D7D7" d="m20 58h12a1 1 0 0 0 1-1v-3h12v-2h-12v-3a1 1 0 0 0 -1-1h-12a1 1 0 0 0 -1 1v3h-9v2h9v3a1 1 0 0 0 1 1z" class="active-path" data-old_color="#000000" data-original="#000000"/><path fill="#D7D7D7" d="m2 52h2v2h-2z" class="active-path" data-old_color="#000000" data-original="#000000"/><path fill="#D7D7D7" d="m6 52h2v2h-2z" class="active-path" data-old_color="#000000" data-original="#000000"/><path fill="#D7D7D7" d="m59 52h2v2h-2z" class="active-path" data-old_color="#000000" data-original="#000000"/><path fill="#D7D7D7" d="m55 52h2v2h-2z" class="active-path" data-old_color="#000000" data-original="#000000"/><path fill="#D7D7D7" d="m51 52h2v2h-2z" class="active-path" data-old_color="#000000" data-original="#000000"/><path fill="#D7D7D7" d="m47 52h2v2h-2z" class="active-path" data-old_color="#000000" data-original="#000000"/></g></svg>