<svg xmlns="http://www.w3.org/2000/svg" xmlns:svg="http://www.w3.org/2000/svg" id="svg24" width="512" height="512" class="st2" version="1.1" viewBox="0 0 384 383.999" xml:space="preserve" style="font-size:12px;overflow:visible;color-interpolation-filters:sRGB;fill:none;fill-rule:evenodd;stroke-linecap:square;stroke-miterlimit:3"><metadata id="metadata30"/><style id="style2" type="text/css">.st1{fill:#009949;stroke:none;stroke-linecap:butt;stroke-width:1.37143}.st2{fill:none;fill-rule:evenodd;font-size:12px;overflow:visible;stroke-linecap:square;stroke-miterlimit:3}</style><g id="g22" transform="translate(-1.371415,57.64112)"><title id="title4">页-1</title><g id="group11-1" transform="translate(1.37143,-1.37143)"><title id="title6">工作表.11</title><g id="group12-2"><title id="title8">工作表.12</title><g id="shape13-3"><title id="title10">工作表.13</title><path id="path12" d="M 251.01,2.74 H 132.99 C 59.66,2.74 0,62.4 0,135.73 0,209.06 59.66,268.72 132.99,268.72 H 251.01 C 324.34,268.72 384,209.06 384,135.73 384,62.4 324.34,2.74 251.01,2.74 Z m 0,241.3 H 132.99 c -59.72,0 -108.3,-48.59 -108.3,-108.31 0,-59.72 48.58,-108.3 108.3,-108.3 h 118.02 c 59.72,0 108.3,48.58 108.3,108.3 0,59.72 -48.58,108.31 -108.3,108.31 z" class="st1" style="fill:#009949;stroke:none;stroke-width:1.37143004;stroke-linecap:butt"/></g><g id="shape14-5" transform="translate(153.577,-59.5666)"><title id="title15">工作表.14</title><path id="path17" d="M 89.21,180.66 31.32,132.26 C 18.9,121.88 0,130.71 0,146.9 v 96.8 c 0,16.19 18.9,25.02 31.32,14.64 l 57.89,-48.4 c 9.12,-7.63 9.12,-21.65 0,-29.28 z" class="st1" style="fill:#009949;stroke:none;stroke-width:1.37143004;stroke-linecap:butt"/></g></g></g></g></svg>