<svg xmlns="http://www.w3.org/2000/svg" xmlns:svg="http://www.w3.org/2000/svg" id="svg152" width="512" height="512" class="st2" version="1.1" viewBox="0 0 384 384" xml:space="preserve" style="font-size:12px;overflow:visible;color-interpolation-filters:sRGB;fill:none;fill-rule:evenodd;stroke-linecap:square;stroke-miterlimit:3"><metadata id="metadata158"/><style id="style138" type="text/css">.st1{fill:#eeb211;stroke:none;stroke-linecap:butt;stroke-width:8}.st2{fill:none;fill-rule:evenodd;font-size:12px;overflow:visible;stroke-linecap:square;stroke-miterlimit:3}</style><g id="g150" transform="translate(0.2822425,53.650142)"><title id="title140">页-1</title><g id="group99-1" transform="translate(0,-5.21689)"><title id="title142">工作表.99</title><g id="shape127-2" transform="translate(77.0079,-2.78311)"><title id="title144">工作表.127</title><path id="path146" d="M 184.56,78.07 C 184.56,40.1 152.95,16 114.71,16 76.47,16 44.86,40.1 44.86,78.07 v 11.69 h 139.7 z m -95.59,0 c -8.82,0 -16.17,-7.3 -16.17,-16.06 0,-8.76 7.35,-16.07 16.17,-16.07 8.82,0 16.18,7.31 16.18,16.07 0,8.76 -6.62,16.06 -16.18,16.06 z m 51.48,0 c -8.83,0 -16.18,-7.3 -16.18,-16.06 0,-8.76 7.35,-16.07 16.18,-16.07 8.82,0 16.17,7.31 16.17,16.07 0,8.76 -7.35,16.06 -16.17,16.06 z M 0,115.31 h 16.91 v 61.35 H 0 Z m 23.53,62.08 c 0,23.37 8.82,42.36 23.53,56.23 v 43.08 h 46.33 v -20.45 c 6.61,1.46 13.96,2.19 21.32,2.19 7.35,0 14.7,-0.74 21.32,-2.19 v 20.45 h 46.32 v -42.36 c 14.71,-13.87 23.53,-32.86 23.53,-56.23 v -77.4 H 23.53 Z m 114.71,16.58 38.97,-17.53 -38.97,-17.53 v -11.68 l 50.74,24.1 v 10.23 l -50.73,24.1 v -11.69 z m -16.91,-57.69 h 10.28 l -22.79,79.59 H 98.53 Z M 40.44,171.33 91.18,146.5 v 12.41 l -38.24,17.54 38.24,17.53 v 11.68 L 40.44,180.83 Z m 188.98,-56.02 v 61.35 H 212.5 v -61.35 z" class="st1" style="fill:#eeb211;stroke:none;stroke-width:8;stroke-linecap:butt"/></g></g></g></svg>