<svg xmlns="http://www.w3.org/2000/svg" xmlns:svg="http://www.w3.org/2000/svg" id="svg8" width="128mm" height="64mm" version="1.1" viewBox="0 0 128 64"><metadata id="metadata5"/><g id="layer1" transform="translate(-25.712104,-26.363426)"><g id="g412" transform="matrix(0.11710965,0,0,0.11710965,25.682809,35.046066)" style="font-size:12px;overflow:visible;color-interpolation-filters:sRGB;fill:none;fill-rule:evenodd;stroke-linecap:square;stroke-miterlimit:3"><g id="g312"><title id="title168">页-1</title><g id="group159-1" transform="translate(0.25,-0.25)"><title id="title170">工作表.159</title><g id="group128-2" transform="rotate(-0.2,-36420.967,311.93021)"><title id="title172">工作表.128</title><g id="shape129-3"><title id="title174">同心圆第 1 层</title><path style="fill:red;stroke:none;stroke-width:.5;stroke-linecap:round;stroke-linejoin:round" id="path176" d="m 0,375.54 a 22.6772,22.6772 -180 0 0 45.35,0 22.6772,22.6772 -180 0 0 -45.35,0 z m 14.17,0 a 8.505,8.505 0 0 1 17.01,0 8.505,8.505 0 0 1 -17.01,0 z" class="st1"/></g><g id="shape130-5" transform="translate(15.5906,-36.8504)"><title id="title179">框</title><rect style="fill:red;stroke:none;stroke-width:.5;stroke-linecap:round;stroke-linejoin:round" id="rect181" width="14.173" height="34.016" x="0" y="364.198" class="st1"/></g></g><g id="group131-7" transform="rotate(-0.2,-18174.151,-13931.103)"><title id="title185">工作表.131</title><g id="shape132-8"><title id="title187">同心圆第 1 层</title><path style="fill:#ffc000;stroke:none;stroke-width:.5;stroke-linecap:round;stroke-linejoin:round" id="path189" d="m 0,375.54 a 22.6772,22.6772 -180 0 0 45.35,0 22.6772,22.6772 -180 0 0 -45.35,0 z m 14.17,0 a 8.505,8.505 0 0 1 17.01,0 8.505,8.505 0 0 1 -17.01,0 z" class="st2"/></g><g id="shape133-10" transform="translate(15.5906,-36.8504)"><title id="title192">框</title><rect style="fill:#ffc000;stroke:none;stroke-width:.5;stroke-linecap:round;stroke-linejoin:round" id="rect194" width="14.173" height="97.795" x="0" y="300.419" class="st2"/></g></g><g id="group134-12" transform="matrix(-0.99999391,0.00349065,0.00349065,0.99999391,242.467,-127.981)"><title id="title198">工作表.134</title><g id="shape135-13"><title id="title200">同心圆第 1 层</title><path style="fill:#7030a0;stroke:none;stroke-width:.5;stroke-linecap:round;stroke-linejoin:round" id="path202" d="m 0,375.54 a 22.6772,22.6772 -180 0 0 45.35,0 22.6772,22.6772 -180 0 0 -45.35,0 z m 14.17,0 a 8.505,8.505 0 0 1 17.01,0 8.505,8.505 0 0 1 -17.01,0 z" class="st3"/></g><g id="shape136-15" transform="translate(15.5906,-36.8504)"><title id="title205">框</title><rect style="fill:#7030a0;stroke:none;stroke-width:.5;stroke-linecap:round;stroke-linejoin:round" id="rect207" width="14.173" height="34.016" x="0" y="364.198" class="st3"/></g></g><g id="group137-17" transform="matrix(-0.99999391,0.00349065,0.00349065,0.99999391,193.084,-64.0292)"><title id="title211">工作表.137</title><g id="shape138-18"><title id="title213">同心圆第 1 层</title><path style="fill:#00b050;stroke:none;stroke-width:.5;stroke-linecap:round;stroke-linejoin:round" id="path215" d="m 0,375.54 a 22.6772,22.6772 -180 0 0 45.35,0 22.6772,22.6772 -180 0 0 -45.35,0 z m 14.17,0 a 8.505,8.505 0 0 1 17.01,0 8.505,8.505 0 0 1 -17.01,0 z" class="st4"/></g><g id="shape139-20" transform="translate(15.5906,-36.8504)"><title id="title218">框</title><rect style="fill:#00b050;stroke:none;stroke-width:.5;stroke-linecap:round;stroke-linejoin:round" id="rect220" width="14.173" height="97.795" x="0" y="300.419" class="st4"/></g></g><g id="group140-22" transform="matrix(0.99999391,-0.00349065,-0.00349065,-0.99999391,249.005,526.696)"><title id="title224">工作表.140</title><g id="shape141-23"><title id="title226">同心圆第 1 层</title><path style="fill:#7030a0;stroke:none;stroke-width:.5;stroke-linecap:round;stroke-linejoin:round" id="path228" d="m 0,375.54 a 22.6772,22.6772 -180 0 0 45.35,0 22.6772,22.6772 -180 0 0 -45.35,0 z m 14.17,0 a 8.505,8.505 0 0 1 17.01,0 8.505,8.505 0 0 1 -17.01,0 z" class="st3"/></g><g id="shape142-25" transform="translate(15.5906,-36.8504)"><title id="title231">框</title><rect style="fill:#7030a0;stroke:none;stroke-width:.5;stroke-linecap:round;stroke-linejoin:round" id="rect233" width="14.173" height="34.016" x="0" y="364.198" class="st3"/></g></g><g id="group143-27" transform="matrix(0.99999391,-0.00349065,-0.00349065,-0.99999391,298.388,462.743)"><title id="title237">工作表.143</title><g id="shape144-28"><title id="title239">同心圆第 1 层</title><path style="fill:#00b050;stroke:none;stroke-width:.5;stroke-linecap:round;stroke-linejoin:round" id="path241" d="m 0,375.54 a 22.6772,22.6772 -180 0 0 45.35,0 22.6772,22.6772 -180 0 0 -45.35,0 z m 14.17,0 a 8.505,8.505 0 0 1 17.01,0 8.505,8.505 0 0 1 -17.01,0 z" class="st4"/></g><g id="shape145-30" transform="translate(15.5906,-36.8504)"><title id="title244">框</title><rect style="fill:#00b050;stroke:none;stroke-width:.5;stroke-linecap:round;stroke-linejoin:round" id="rect246" width="14.173" height="97.795" x="0" y="300.419" class="st4"/></g></g><g id="group146-32" transform="matrix(0.99999391,-0.00349065,-0.00349065,-0.99999391,347.771,398.791)"><title id="title250">工作表.146</title><g id="shape147-33"><title id="title252">同心圆第 1 层</title><path style="fill:#0070c0;stroke:none;stroke-width:.5;stroke-linecap:round;stroke-linejoin:round" id="path254" d="m 0,375.54 a 22.6772,22.6772 -180 0 0 45.35,0 22.6772,22.6772 -180 0 0 -45.35,0 z m 14.17,0 a 8.505,8.505 0 0 1 17.01,0 8.505,8.505 0 0 1 -17.01,0 z" class="st5"/></g><g id="shape148-35" transform="translate(15.5906,-36.8504)"><title id="title257">框</title><rect style="fill:#0070c0;stroke:none;stroke-width:.5;stroke-linecap:round;stroke-linejoin:round" id="rect259" width="14.173" height="161.575" x="0" y="236.639" class="st5"/></g></g><g id="group149-37" transform="rotate(179.8,245.93261,263.35253)"><title id="title263">工作表.149</title><g id="shape150-38"><title id="title265">同心圆第 1 层</title><path style="fill:red;stroke:none;stroke-width:.5;stroke-linecap:round;stroke-linejoin:round" id="path267" d="m 0,375.54 a 22.6772,22.6772 -180 0 0 45.35,0 22.6772,22.6772 -180 0 0 -45.35,0 z m 14.17,0 a 8.505,8.505 0 0 1 17.01,0 8.505,8.505 0 0 1 -17.01,0 z" class="st1"/></g><g id="shape151-40" transform="translate(15.5906,-36.8504)"><title id="title270">框</title><rect style="fill:red;stroke:none;stroke-width:.5;stroke-linecap:round;stroke-linejoin:round" id="rect272" width="14.173" height="34.016" x="0" y="364.198" class="st1"/></g></g><g id="group152-42" transform="rotate(179.8,221.07362,231.50605)"><title id="title276">工作表.152</title><g id="shape153-43"><title id="title278">同心圆第 1 层</title><path style="fill:#ffc000;stroke:none;stroke-width:.5;stroke-linecap:round;stroke-linejoin:round" id="path280" d="m 0,375.54 a 22.6772,22.6772 -180 0 0 45.35,0 22.6772,22.6772 -180 0 0 -45.35,0 z m 14.17,0 a 8.505,8.505 0 0 1 17.01,0 8.505,8.505 0 0 1 -17.01,0 z" class="st2"/></g><g id="shape154-45" transform="translate(15.5906,-36.8504)"><title id="title283">框</title><rect style="fill:#ffc000;stroke:none;stroke-width:.5;stroke-linecap:round;stroke-linejoin:round" id="rect285" width="14.173" height="97.795" x="0" y="300.419" class="st2"/></g></g><g id="shape155-47" transform="rotate(-0.2,-20320.812,-71783.393)"><title id="title289">工作表.155</title><desc id="desc291">DreamSourceLab</desc><rect style="fill:none;stroke:none;stroke-width:.5;stroke-linecap:round;stroke-linejoin:round" id="rect293" width="841.161" height="85.039" x="0" y="313.175" class="st6"/><text style="font-weight:700;font-size:100.00007629px;font-family:Arial;fill:#0070c0" id="text295" x="4" y="385.69" class="st7">DreamSourceLab</text></g><g id="group156-50" transform="rotate(-0.2,72.505787,-28174.128)"><title id="title298">工作表.156</title><g id="shape157-51"><title id="title300">同心圆第 1 层</title><path style="fill:#0070c0;stroke:none;stroke-width:.5;stroke-linecap:round;stroke-linejoin:round" id="path302" d="m 0,375.54 a 22.6772,22.6772 -180 0 0 45.35,0 22.6772,22.6772 -180 0 0 -45.35,0 z m 14.17,0 a 8.505,8.505 0 0 1 17.01,0 8.505,8.505 0 0 1 -17.01,0 z" class="st5"/></g><g id="shape158-53" transform="translate(15.5906,-36.8504)"><title id="title305">框</title><rect style="fill:#0070c0;stroke:none;stroke-width:.5;stroke-linecap:round;stroke-linejoin:round" id="rect307" width="14.173" height="161.575" x="0" y="236.639" class="st5"/></g></g></g></g></g></g><style id="style166" type="text/css">.st1{fill:red}.st1,.st2,.st3,.st4,.st5,.st6{stroke:none;stroke-linecap:round;stroke-linejoin:round;stroke-width:.5}.st2{fill:#ffc000}.st3{fill:#7030a0}.st4{fill:#00b050}.st5{fill:#0070c0}.st6{fill:none}.st7{fill:#0070c0;font-family:Arial;font-size:8.33334em;font-weight:700}</style></svg>