<svg xmlns="http://www.w3.org/2000/svg" xmlns:svg="http://www.w3.org/2000/svg" id="svg16" width="256" height="256" class="st2" version="1.1" viewBox="0 0 191.999 192" xml:space="preserve" style="font-size:12px;overflow:visible;color-interpolation-filters:sRGB;fill:none;fill-rule:evenodd;stroke-linecap:square;stroke-miterlimit:3"><metadata id="metadata22"/><style id="style2" type="text/css">.st1{fill:none;stroke:#1185d1;stroke-linecap:round;stroke-linejoin:round;stroke-width:4}.st2{fill:none;fill-rule:evenodd;font-size:12px;overflow:visible;stroke-linecap:square;stroke-miterlimit:3}</style><g id="g14" transform="matrix(0.99623679,0,0,0.99623679,-0.24765502,-1.1257989)"><title id="title4">页-1</title><g id="group18-1"><title id="title6">工作表.18</title><g id="shape19-2" transform="matrix(0,-1,-1,0,231.116,158.526)"><title id="title8">curve</title><path id="path10" d="m 61.03,134.5 c 13.78,10.33 27.63,20.72 38.67,30.06 7.17,6.07 13.59,12.07 17.59,17.17 2.25,2.88 4.23,6.09 4.23,8.65 0,3.23 -3.15,4.61 -8.11,4.61 -7.38,0 -19.13,-3.04 -32.31,-8.36 C 70.5,182.36 58.97,176.61 48,169.77 39.84,164.68 32.09,159.04 25.29,153.03 19.97,148.31 13.61,141.93 8.65,134.5 2.67,125.53 0,116.92 0.64,109.04 1.21,102.11 4.33,96.01 9.45,90.92 c 4.25,-4.24 9.23,-7.14 13.17,-9.03 10.89,-5.21 24.6,-7.87 38.41,-7.87 13.81,0 27.52,2.66 38.41,7.87 3.95,1.89 8.93,4.79 13.18,9.03 5.11,5.09 8.24,11.19 8.8,18.12 0.65,7.88 -2.03,16.49 -8.01,25.46 -4.95,7.43 -11.31,13.81 -16.64,18.53 -6.79,6.01 -14.54,11.65 -22.71,16.74 -10.97,6.84 -22.49,12.59 -33.09,16.86 -13.18,5.32 -24.94,8.36 -32.32,8.36 -4.96,0 -8.1,-1.38 -8.1,-4.61 0,-2.56 1.97,-5.77 4.22,-8.65 4,-5.1 10.43,-11.1 17.6,-17.17 11.04,-9.34 24.89,-19.73 38.66,-30.06 13.78,-10.33 27.63,-20.72 38.67,-30.06 7.17,-6.07 13.59,-12.07 17.59,-17.17 2.25,-2.87 4.23,-6.09 4.23,-8.65 0,-3.23 -3.15,-4.6 -8.11,-4.6 -7.38,0 -19.13,3.04 -32.31,8.35 -10.6,4.27 -22.13,10.02 -33.1,16.86 -8.16,5.1 -15.91,10.74 -22.71,16.75 -5.32,4.71 -11.68,11.09 -16.64,18.52 -5.98,8.97 -8.65,17.59 -8.01,25.46 0.57,6.93 3.69,13.03 8.81,18.13 4.25,4.23 9.23,7.13 13.17,9.02 10.89,5.22 24.6,7.88 38.41,7.88 13.81,0 27.52,-2.66 38.41,-7.88 3.95,-1.89 8.93,-4.79 13.18,-9.02 5.11,-5.1 8.24,-11.2 8.8,-18.13 0.65,-7.87 -2.03,-16.49 -8.01,-25.46 C 108.46,127.07 102.1,120.69 96.77,115.98 89.98,109.97 82.23,104.33 74.06,99.23 63.09,92.39 51.57,86.64 40.97,82.37 27.79,77.06 16.03,74.02 8.65,74.02 c -4.96,0 -8.1,1.37 -8.1,4.6 0,2.56 1.97,5.78 4.22,8.65 4,5.1 10.43,11.1 17.6,17.17 11.04,9.34 24.89,19.73 38.66,30.06 z" class="st1" style="fill:none;stroke:#1185d1;stroke-width:4;stroke-linecap:round;stroke-linejoin:round"/></g></g></g></svg>