<svg xmlns="http://www.w3.org/2000/svg" xmlns:svg="http://www.w3.org/2000/svg" id="svg34" width="256" height="256" class="st2" version="1.1" viewBox="0 0 192 192" xml:space="preserve" style="font-size:12px;overflow:visible;color-interpolation-filters:sRGB;fill:none;fill-rule:evenodd;stroke-linecap:square;stroke-miterlimit:3"><metadata id="metadata40"/><style id="style2" type="text/css">.st1{fill:#1185d1;stroke:none;stroke-linecap:butt;stroke-width:1.0386}.st2{fill:none;fill-rule:evenodd;font-size:12px;overflow:visible;stroke-linecap:square;stroke-miterlimit:3}</style><g id="g32" transform="matrix(0.75408594,0,0,0.75408594,5.1384411,4.8352608)"><title id="title4">页-1</title><g id="group20-1"><title id="title6">工作表.20</title><g id="group21-2" transform="translate(37.942,-38.0689)"><title id="title8">工作表.21</title><g id="shape22-3" transform="translate(88.6204,-89.1737)"><title id="title10">工作表.22</title><path id="path12" d="m 10.93,241.79 h 54.63 c 6.03,0 10.92,-4.89 10.92,-10.92 v -54.63 c 0,-6.04 -4.89,-10.93 -10.92,-10.93 H 10.93 C 4.89,165.31 0,170.2 0,176.24 v 54.63 c 0,6.03 4.89,10.92 10.93,10.92 z m 8.28,-42.63 h 14.64 v -14.64 c 0,-2.43 1.97,-4.4 4.39,-4.4 2.43,0 4.4,1.97 4.4,4.4 v 14.64 h 14.64 c 2.42,0 4.39,1.97 4.39,4.39 0,2.43 -1.97,4.39 -4.39,4.39 H 42.64 v 14.65 c 0,2.42 -1.97,4.38 -4.4,4.38 -2.42,0 -4.39,-1.96 -4.39,-4.38 V 207.94 H 19.21 c -2.43,0 -4.39,-1.96 -4.39,-4.39 0,-2.42 1.96,-4.39 4.39,-4.39 z" class="st1" style="fill:#1185d1;stroke:none;stroke-width:1.03859997;stroke-linecap:butt"/></g><g id="shape23-5"><title id="title15">工作表.23</title><path id="path17" d="m 10.93,241.79 h 54.63 c 6.03,0 10.92,-4.89 10.92,-10.92 v -54.63 c 0,-6.04 -4.89,-10.93 -10.92,-10.93 H 10.93 C 4.89,165.31 0,170.2 0,176.24 v 54.63 c 0,6.03 4.89,10.92 10.93,10.92 z m 10.75,-54.8 c 1.72,-1.72 4.49,-1.72 6.21,0 l 10.35,10.35 10.35,-10.35 c 1.72,-1.72 4.5,-1.72 6.21,0 1.72,1.72 1.72,4.5 0,6.21 l -10.35,10.36 10.35,10.35 c 1.72,1.71 1.72,4.49 0,6.21 -1.71,1.71 -4.49,1.71 -6.21,0 L 38.24,209.77 27.89,220.12 c -1.72,1.71 -4.5,1.71 -6.21,0 -1.71,-1.72 -1.72,-4.5 0,-6.21 L 32.03,203.56 21.68,193.2 c -1.72,-1.71 -1.72,-4.5 0,-6.21 z" class="st1" style="fill:#1185d1;stroke:none;stroke-width:1.03859997;stroke-linecap:butt"/></g><g id="shape24-7" transform="translate(4.48046e-4,-89.1737)"><title id="title20">工作表.24</title><path id="path22" d="m 10.93,241.79 h 54.63 c 6.03,0 10.92,-4.89 10.92,-10.92 v -54.63 c 0,-6.04 -4.89,-10.93 -10.92,-10.93 H 10.93 C 4.89,165.31 0,170.2 0,176.24 v 54.63 c 0,6.03 4.89,10.92 10.93,10.92 z m 10.92,-41.88 h 32.78 c 2.01,0 3.64,1.63 3.64,3.64 0,2.01 -1.63,3.64 -3.64,3.64 H 21.85 c -2.01,0 -3.64,-1.63 -3.64,-3.64 0,-2.01 1.63,-3.64 3.64,-3.64 z" class="st1" style="fill:#1185d1;stroke:none;stroke-width:1.03859997;stroke-linecap:butt"/></g><g id="shape25-9" transform="translate(88.6204)"><title id="title25">工作表.25</title><path id="path27" d="m 10.93,241.79 h 54.63 c 6.03,0 10.92,-4.89 10.92,-10.92 v -54.63 c 0,-6.04 -4.89,-10.93 -10.92,-10.93 H 10.93 C 4.89,165.31 0,170.2 0,176.24 v 54.63 c 0,6.03 4.89,10.92 10.93,10.92 z m 27.31,-15.45 c -3.01,0 -5.46,-2.44 -5.46,-5.46 0,-3.02 2.44,-5.47 5.46,-5.47 3.02,0 5.46,2.45 5.46,5.47 0,3.02 -2.44,5.46 -5.46,5.46 z m 0,-40.06 c 3.02,0 5.46,2.44 5.46,5.46 0,3.02 -2.44,5.46 -5.46,5.46 -3.01,0 -5.46,-2.44 -5.46,-5.46 0,-3.02 2.45,-5.46 5.46,-5.46 z m -16.39,16.84 h 32.78 c 2.01,0 3.64,1.63 3.64,3.64 0,2.02 -1.63,3.65 -3.64,3.65 H 21.85 c -2.01,0 -3.64,-1.63 -3.64,-3.65 0,-2.01 1.63,-3.64 3.64,-3.64 z" class="st1" style="fill:#1185d1;stroke:none;stroke-width:1.03859997;stroke-linecap:butt"/></g></g></g></g></svg>