<svg xmlns="http://www.w3.org/2000/svg" xmlns:svg="http://www.w3.org/2000/svg" id="svg16" width="512" height="512" class="st2" version="1.1" viewBox="0 0 384 384" xml:space="preserve" style="font-size:12px;overflow:visible;color-interpolation-filters:sRGB;fill:none;fill-rule:evenodd;stroke-linecap:square;stroke-miterlimit:3"><metadata id="metadata22"/><style id="style2" type="text/css">.st1{fill:#009949;stroke:none;stroke-linecap:butt;stroke-width:.75}.st2{fill:none;fill-rule:evenodd;font-size:12px;overflow:visible;stroke-linecap:square;stroke-miterlimit:3}</style><g id="g14" transform="translate(0.284115,59.153225)"><title id="title4">页-1</title><g id="group103-1"><title id="title6">工作表.103</title><g id="shape125-2" transform="translate(22.806,-58.0634)"><title id="title8">path1334</title><path id="path10" d="M 337.82,190.92 300.29,169.24 V 184.7 H 108.48 l 37.35,-39.45 c 3.18,-2.55 7.33,-4.34 11.61,-4.44 17.31,0 27.59,0 31.37,-0.01 2.56,7.31 9.45,12.58 17.64,12.58 10.36,0 18.77,-8.41 18.77,-18.77 0,-10.37 -8.41,-18.77 -18.77,-18.77 -8.19,0 -15.08,5.27 -17.64,12.57 l -31,-0.01 c -8.4,0 -17.21,4.61 -22.81,10.02 0.15,-0.16 0.31,-0.33 -0.01,0 -0.12,0.13 -39.62,41.86 -39.62,41.86 -3.17,2.54 -7.33,4.32 -11.61,4.42 H 62.06 C 59.19,170.37 46.53,159.57 31.35,159.57 14.03,159.57 0,173.6 0,190.91 c 0,17.31 14.03,31.34 31.35,31.34 15.18,0 27.84,-10.8 30.72,-25.15 h 21.32 c 0.05,0 0.11,0 0.16,0 h 47.15 c 4.27,0.11 8.42,1.89 11.59,4.43 0,0 39.5,41.73 39.62,41.86 0.32,0.34 0.16,0.16 0,0 5.61,5.41 14.42,10.01 22.82,10.01 h 29.87 v 12.58 h 37.54 V 228.45 H 234.6 v 12.56 c 0,0 -7.87,-0.01 -30.24,-0.01 -4.28,-0.1 -8.44,-1.88 -11.62,-4.43 L 155.39,197.1 h 144.9 v 15.49 z" class="st1" style="fill:#009949;stroke:none;stroke-width:.75;stroke-linecap:butt"/></g></g></g></svg>