<svg xmlns="http://www.w3.org/2000/svg" xmlns:svg="http://www.w3.org/2000/svg" id="svg24" width="512" height="512" class="st2" version="1.1" viewBox="0 0 384 384" xml:space="preserve" style="font-size:12px;overflow:visible;color-interpolation-filters:sRGB;fill:none;fill-rule:evenodd;stroke-linecap:square;stroke-miterlimit:3"><metadata id="metadata30"/><style id="style2" type="text/css">.st1{fill:#2a2a2a;stroke:none;stroke-linecap:butt;stroke-width:.783673}.st2{fill:none;fill-rule:evenodd;font-size:12px;overflow:visible;stroke-linecap:square;stroke-miterlimit:3}</style><g id="g22" transform="translate(0.211915,59.026425)"><title id="title4">页-1</title><g id="group1021-1"><title id="title6">工作表.1021</title><g id="group1029-2" transform="translate(78.0332,-19.2516)"><title id="title8">工作表.1029</title><g id="shape1030-3"><title id="title10">工作表.1030</title><path id="path12" d="M 207.82,38.47 V 74.6 c 0,0 -64.82,0 -65,0 -2,-8.13 -9.38,-14.07 -18.06,-14.07 -10.31,0 -18.62,8.31 -18.62,18.62 0,10.3 8.31,18.62 18.62,18.62 8.68,0 16.06,-5.95 18.06,-14.07 0.18,0 65,0 65,0 v 63.75 c 0,0 -15.69,0 -15.88,0 -2,-8.13 -9.38,-14.07 -18.06,-14.07 -10.31,0 -18.62,8.31 -18.62,18.62 0,10.3 8.31,18.61 18.62,18.61 8.68,0 16.06,-5.94 18.06,-14.06 0.19,0 15.88,0 15.88,0 v 63.74 c 0,0 -17.13,0 -17.32,0 -2,-8.12 -9.38,-14.06 -18.06,-14.06 -8.68,0 -16.06,5.94 -18.06,14.06 -0.19,0 -28,0 -28.18,0 -2,-8.12 -9.38,-14.06 -18.07,-14.06 -8.68,0 -16.06,5.94 -18.06,14.06 -0.18,0 -21.68,0 -21.86,0 -2,-8.12 -9.38,-14.06 -18.07,-14.06 -8.68,0 -16.06,5.94 -18.06,14.06 -0.18,0 -12.44,0 -12.44,0 v -63.37 c 0,0 12.26,0 12.44,0 2,8.12 9.38,14.07 18.06,14.07 8.69,0 16.07,-5.95 18.07,-14.07 0.18,0 50,0 50.19,0 1.99,8.12 9.37,14.07 18.06,14.07 10.3,0 18.62,-8.32 18.62,-18.62 0,-10.31 -8.32,-18.62 -18.62,-18.62 -8.69,0 -16.07,5.94 -18.06,14.07 -0.19,0 -50.01,0 -50.19,0 -2,-8.13 -9.38,-14.07 -18.07,-14.07 -8.68,0 -16.06,5.94 -18.06,14.07 -0.18,0 -12.44,0 -12.44,0 V 83.79 c 0,0 12.26,0 12.44,0 2,8.13 9.38,14.07 18.06,14.07 10.31,0 18.62,-8.31 18.62,-18.62 0,-10.31 -8.31,-18.62 -18.62,-18.62 -8.68,0 -16.06,5.94 -18.06,14.07 -0.18,0 -12.44,0 -12.44,0 V 38.47 H 0 v 227.51 h 19.69 v -36.12 c 0,0 12.25,0 12.44,0 2,8.12 9.38,14.07 18.06,14.07 8.68,0 16.07,-5.95 18.06,-14.07 0.19,0 21.5,0 21.68,0 2,8.12 9.38,14.07 18.07,14.07 8.68,0 16.06,-5.95 18.06,-14.07 0.18,0 27.99,0 28.18,0 2,8.12 9.38,14.07 18.06,14.07 8.68,0 16.07,-5.95 18.06,-14.07 0.19,0 17.32,0 17.32,0 v 36.12 h 19.83 V 38.47 Z" class="st1" style="fill:#2a2a2a;stroke:none;stroke-width:.78367299;stroke-linecap:butt"/></g><g id="shape1031-5" transform="translate(68.7625,-168.076)"><title id="title15">工作表.1031</title><circle id="ellipse17" cx="18.618" cy="247.362" r="18.618" class="st1" style="fill:#2a2a2a;stroke:none;stroke-width:.78367299;stroke-linecap:butt"/></g></g></g></g></svg>