<svg xmlns="http://www.w3.org/2000/svg" xmlns:svg="http://www.w3.org/2000/svg" id="Capa_1" width="512" height="512" x="0" y="0" version="1.1" viewBox="0 0 369.728 369.728" xml:space="preserve"><metadata id="metadata19"/><g id="g12"><g id="g10"><path id="path2" d="m 222.796,170.7 h 121.929 c 13.469,0 24.386,-10.917 24.386,-24.386 V 24.386 C 369.11,10.917 358.194,0 344.725,0 H 222.796 C 209.327,0 198.41,10.917 198.41,24.386 v 121.929 c 0,13.468 10.925,24.385 24.386,24.385 z M 241.28,75.547 h 32.677 V 42.87 c 0,-5.422 4.398,-9.811 9.803,-9.811 5.422,0 9.811,4.398 9.811,9.811 v 32.677 h 32.677 c 5.414,0 9.803,4.389 9.803,9.803 0,5.414 -4.389,9.803 -9.803,9.803 h -32.677 v 32.677 c 0,5.414 -4.389,9.795 -9.811,9.795 -5.406,0 -9.803,-4.389 -9.803,-9.795 V 95.153 H 241.28 c -5.414,0 -9.803,-4.389 -9.803,-9.803 0.009,-5.414 4.39,-9.803 9.803,-9.803 z" class="active-path" data-old_color="#010002" data-original="#010002" style="fill:#2a2a2a"/><path id="path4" d="m 25.003,369.728 h 121.929 c 13.469,0 24.386,-10.917 24.386,-24.386 V 223.414 c 0,-13.469 -10.917,-24.386 -24.386,-24.386 H 25.003 c -13.469,0 -24.386,10.917 -24.386,24.386 v 121.929 c 0.001,13.46 10.917,24.385 24.386,24.385 z M 48.999,247.409 c 3.837,-3.837 10.031,-3.837 13.859,0 l 23.101,23.11 23.11,-23.11 c 3.829,-3.829 10.039,-3.829 13.867,0 3.829,3.837 3.829,10.039 0,13.867 l -23.11,23.11 23.11,23.101 c 3.829,3.829 3.82,10.031 -0.008,13.859 -3.829,3.829 -10.031,3.837 -13.859,0 l -23.11,-23.101 -23.101,23.101 c -3.829,3.829 -10.031,3.829 -13.859,0 -3.82,-3.82 -3.829,-10.031 0,-13.859 L 72.1,284.386 48.999,261.268 c -3.837,-3.82 -3.829,-10.03 0,-13.859 z" class="active-path" data-old_color="#010002" data-original="#010002" style="fill:#2a2a2a"/><path id="path6" d="m 25.003,170.7 h 121.929 c 13.469,0 24.386,-10.917 24.386,-24.386 V 24.386 C 171.318,10.917 160.401,0 146.932,0 H 25.003 C 11.534,0 0.618,10.917 0.618,24.386 v 121.929 c 0,13.468 10.916,24.385 24.385,24.385 z M 49.389,77.221 h 73.157 c 4.487,0 8.129,3.642 8.129,8.129 0,4.487 -3.642,8.129 -8.129,8.129 H 49.389 c -4.487,0 -8.129,-3.642 -8.129,-8.129 0,-4.487 3.642,-8.129 8.129,-8.129 z" class="active-path" data-old_color="#010002" data-original="#010002" style="fill:#2a2a2a"/><path id="path8" d="m 222.796,369.728 h 121.929 c 13.469,0 24.386,-10.917 24.386,-24.386 V 223.414 c 0,-13.469 -10.917,-24.386 -24.386,-24.386 H 222.796 c -13.461,0 -24.386,10.917 -24.386,24.386 v 121.929 c 0,13.46 10.925,24.385 24.386,24.385 z m 60.964,-34.489 c -6.73,0 -12.193,-5.454 -12.193,-12.193 0,-6.739 5.462,-12.193 12.193,-12.193 6.739,0 12.193,5.454 12.193,12.193 0,6.738 -5.446,12.193 -12.193,12.193 z m 0,-89.415 c 6.739,0 12.193,5.454 12.193,12.193 0,6.739 -5.454,12.193 -12.193,12.193 -6.73,0 -12.193,-5.454 -12.193,-12.193 10e-4,-6.738 5.463,-12.193 12.193,-12.193 z m -36.578,37.595 h 73.157 c 4.487,0 8.129,3.642 8.129,8.129 0,4.487 -3.642,8.129 -8.129,8.129 h -73.157 c -4.487,0 -8.129,-3.642 -8.129,-8.129 0,-4.487 3.642,-8.129 8.129,-8.129 z" class="active-path" data-old_color="#010002" data-original="#010002" style="fill:#2a2a2a"/></g></g></svg>