<svg xmlns="http://www.w3.org/2000/svg" xmlns:svg="http://www.w3.org/2000/svg" id="svg97" width="512" height="512" class="st4" version="1.1" viewBox="0 0 384 384" xml:space="preserve" style="font-size:12px;overflow:visible;color-interpolation-filters:sRGB;fill:none;fill-rule:evenodd;stroke-linecap:square;stroke-miterlimit:3"><metadata id="metadata103"/><style id="style2" type="text/css">.st1{fill:#2a2a2a;stroke:#2a2a2a;stroke-linecap:butt;stroke-width:1.37143}.st2,.st3{stroke:#2a2a2a;stroke-linecap:round;stroke-linejoin:round}.st2{fill:#2a2a2a;stroke-width:.5}.st3{stroke-width:10}.st4{fill:none;fill-rule:evenodd;font-size:12px;overflow:visible;stroke-linecap:square;stroke-miterlimit:3}</style><g id="g95" transform="translate(2.833615,54.417725)"><title id="title4">页-1</title><g id="group333-1"><title id="title6">工作表.333</title><g id="group334-2" transform="translate(28.3465,-17.0079)"><title id="title8">工作表.334</title><g id="shape335-3"><title id="title10">工作表.335</title><path id="path12" d="M 210.25,43.2 H 111.39 C 49.97,43.2 0,93.17 0,154.59 0,216.01 49.97,265.98 111.39,265.98 h 98.86 c 61.42,0 111.39,-49.97 111.39,-111.39 C 321.64,93.17 271.67,43.2 210.25,43.2 Z m 0,202.1 h -98.86 c -50.02,0 -90.71,-40.69 -90.71,-90.71 0,-50.02 40.69,-90.72 90.71,-90.72 h 98.86 c 50.02,0 90.71,40.7 90.71,90.72 0,50.02 -40.69,90.71 -90.71,90.71 z" class="st1" style="fill:#2a2a2a;stroke:#2a2a2a;stroke-width:1.37143004;stroke-linecap:butt"/></g></g><g id="group336-5" transform="translate(130.227,-65.6784)"><title id="title16">工作表.336</title><g id="shape337-6" transform="translate(0,-46.887)"><title id="title18">圆形</title><path id="path20" d="m 0,258.81 a 7.16737,7.16737 0 0 1 14.33,0 7.16737,7.16737 0 1 1 -14.33,0 z" class="st2" style="fill:#2a2a2a;stroke:#2a2a2a;stroke-width:.5;stroke-linecap:round;stroke-linejoin:round"/></g><g id="shape338-8" transform="translate(6.19056,-26.6914)"><title id="title23">圆形.45</title><path id="path25" d="m 0,258.81 a 7.16737,7.16737 0 0 1 14.33,0 7.16737,7.16737 0 1 1 -14.33,0 z" class="st2" style="fill:#2a2a2a;stroke:#2a2a2a;stroke-width:.5;stroke-linecap:round;stroke-linejoin:round"/></g><g id="shape339-10" transform="translate(20.2567,-11.7218)"><title id="title28">圆形.46</title><path id="path30" d="m 0,259.34 a 6.64233,6.64233 0 0 1 13.28,0 6.64233,6.64233 0 1 1 -13.28,0 z" class="st2" style="fill:#2a2a2a;stroke:#2a2a2a;stroke-width:.5;stroke-linecap:round;stroke-linejoin:round"/></g><g id="shape340-12" transform="translate(37.4486,-3.41885)"><title id="title33">圆形.47</title><path id="path35" d="m 0,260.12 a 5.86088,5.86088 0 0 1 11.72,0 5.86088,5.86088 0 1 1 -11.72,0 z" class="st2" style="fill:#2a2a2a;stroke:#2a2a2a;stroke-width:.5;stroke-linecap:round;stroke-linejoin:round"/></g><g id="shape341-14" transform="translate(54.4777)"><title id="title38">圆形.48</title><path id="path40" d="m 0,260.82 a 5.16083,5.16083 0 1 1 10.32,0 5.16083,5.16083 0 1 1 -10.32,0 z" class="st2" style="fill:#2a2a2a;stroke:#2a2a2a;stroke-width:.5;stroke-linecap:round;stroke-linejoin:round"/></g><g id="shape342-16" transform="translate(0.0936113,-65.424)"><title id="title43">圆形.50</title><path id="path45" d="m 0,258.45 a 7.53185,7.53185 0 0 1 15.06,0 7.53185,7.53185 0 1 1 -15.06,0 z" class="st2" style="fill:#2a2a2a;stroke:#2a2a2a;stroke-width:.5;stroke-linecap:round;stroke-linejoin:round"/></g><g id="shape343-18" transform="translate(7.01314,-83.7592)"><title id="title48">圆形.51</title><path id="path50" d="m 0,257.84 a 8.145,8.145 0 0 1 16.29,0 8.145,8.145 0 1 1 -16.29,0 z" class="st2" style="fill:#2a2a2a;stroke:#2a2a2a;stroke-width:.5;stroke-linecap:round;stroke-linejoin:round"/></g><g id="shape344-20" transform="translate(20.123,-99.5322)"><title id="title53">圆形.52</title><path id="path55" d="m 0,257.84 a 8.145,8.145 0 0 1 16.29,0 8.145,8.145 0 1 1 -16.29,0 z" class="st2" style="fill:#2a2a2a;stroke:#2a2a2a;stroke-width:.5;stroke-linecap:round;stroke-linejoin:round"/></g><g id="shape345-22" transform="translate(38.6825,-108.332)"><title id="title58">圆形.53</title><path id="path60" d="m 0,257.84 a 8.145,8.145 0 0 1 16.29,0 8.145,8.145 0 1 1 -16.29,0 z" class="st2" style="fill:#2a2a2a;stroke:#2a2a2a;stroke-width:.5;stroke-linecap:round;stroke-linejoin:round"/></g><g id="shape346-24" transform="translate(59.4526,-109.155)"><title id="title63">圆形.54</title><path id="path65" d="m 0,257.84 a 8.145,8.145 0 0 1 16.29,0 8.145,8.145 0 1 1 -16.29,0 z" class="st2" style="fill:#2a2a2a;stroke:#2a2a2a;stroke-width:.5;stroke-linecap:round;stroke-linejoin:round"/></g><g id="shape347-26" transform="translate(79.0705,-101.589)"><title id="title68">圆形.55</title><path id="path70" d="m 0,257.84 a 8.145,8.145 0 0 1 16.29,0 8.145,8.145 0 1 1 -16.29,0 z" class="st2" style="fill:#2a2a2a;stroke:#2a2a2a;stroke-width:.5;stroke-linecap:round;stroke-linejoin:round"/></g><g id="shape348-28" transform="translate(93.7741,-86.0369)"><title id="title73">圆形.56</title><path id="path75" d="m 0,257.84 a 8.145,8.145 0 0 1 16.29,0 8.145,8.145 0 1 1 -16.29,0 z" class="st2" style="fill:#2a2a2a;stroke:#2a2a2a;stroke-width:.5;stroke-linecap:round;stroke-linejoin:round"/></g><g id="shape349-30" transform="translate(101.589,-66.4233)"><title id="title78">圆形.57</title><path id="path80" d="m 0,257.84 a 8.145,8.145 0 0 1 16.29,0 8.145,8.145 0 1 1 -16.29,0 z" class="st2" style="fill:#2a2a2a;stroke:#2a2a2a;stroke-width:.5;stroke-linecap:round;stroke-linejoin:round"/></g></g><g id="shape350-32" transform="rotate(105.104,192.73555,281.51301)"><title id="title84">工作表.350</title><path id="path86" d="M 0,265.98 H 41.88" class="st3" style="stroke:#2a2a2a;stroke-width:10;stroke-linecap:round;stroke-linejoin:round"/></g><g id="shape351-35" transform="rotate(23.9625,441.48751,686.3342)"><title id="title89">工作表.351</title><path id="path91" d="M 0,265.98 H 41.88" class="st3" style="stroke:#2a2a2a;stroke-width:10;stroke-linecap:round;stroke-linejoin:round"/></g></g></g></svg>