<svg xmlns="http://www.w3.org/2000/svg" xmlns:svg="http://www.w3.org/2000/svg" id="svg29" width="512" height="512" class="st2" version="1.1" viewBox="0 0 384 384" xml:space="preserve" style="font-size:12px;overflow:visible;color-interpolation-filters:sRGB;fill:none;fill-rule:evenodd;stroke-linecap:square;stroke-miterlimit:3"><metadata id="metadata35"/><style id="style2" type="text/css">.st1{fill:#2a2a2a;stroke:none;stroke-linecap:butt;stroke-width:1.01898}.st2{fill:none;fill-rule:evenodd;font-size:12px;overflow:visible;stroke-linecap:square;stroke-miterlimit:3}</style><g id="g27" transform="translate(-0.63415413,59.27135)"><title id="title4">页-1</title><g id="group287-1"><title id="title6">工作表.287</title><g id="group340-2" transform="translate(68.72,-8.28015)"><title id="title8">工作表.340</title><g id="shape341-3" transform="translate(149.731,-4.35287)"><title id="title10">工作表.341</title><path id="path12" d="m 88.23,264.44 c 1.54,-1.55 2.79,-2.8 2.79,-2.8 l 2.79,-2.79 c 1.54,-1.55 -1.1,-8.69 -5.88,-15.95 L 75.64,224.25 c -4.79,-7.26 -12.35,-13.93 -16.91,-14.89 -4.55,-0.96 -8.24,-1.74 -8.24,-1.74 l -37.02,-37 -13.47,13.49 36.98,37 1.75,8.25 c 0.96,4.55 7.64,12.12 14.9,16.91 l 18.66,12.3 c 7.26,4.78 14.4,7.41 15.94,5.87 z" class="st1" style="fill:#2a2a2a;stroke:none;stroke-width:1.01898003;stroke-linecap:butt"/></g><g id="shape342-5" transform="translate(0,-136.494)"><title id="title15">工作表.342</title><path id="path17" d="m 10.98,203.71 55,55 6.87,6.86 c 0.16,0.16 0.31,0.25 0.46,0.41 l 9.09,-9.09 -64.88,-64.88 c -1.58,-1.56 -1.58,-4.13 0,-5.68 1.56,-1.59 4.09,-1.59 5.68,0 L 88.06,251.22 98.18,241.08 33.3,176.22 c -1.59,-1.57 -1.59,-4.12 0,-5.69 1.56,-1.56 4.11,-1.56 5.66,0 l 64.91,64.91 9.07,-9.1 c -0.14,-0.15 -0.24,-0.32 -0.38,-0.47 l -7.21,-7.23 -54.65,-54.63 c -10.96,-10.98 -28.76,-10.97 -39.72,0 -10.98,10.96 -10.98,28.74 0,39.7 z" class="st1" style="fill:#2a2a2a;stroke:none;stroke-width:1.01898003;stroke-linecap:butt"/></g><g id="shape343-7" transform="translate(3.3767)"><title id="title20">工作表.343</title><path id="path22" d="m 241.54,72.03 c -0.66,-8.67 -8.33,-10.36 -14.48,-4.21 l -21.49,21.49 c -4.99,5.03 -13.16,5.01 -18.17,0 l -13.92,-13.9 c -5.04,-5.07 -5.02,-13.22 -0.01,-18.25 l 22.21,-22.2 c 6.16,-6.14 4.6,-14.09 -4.04,-15.12 -16.71,-1.99 -34.12,3.41 -46.95,16.23 -9.77,9.79 -15.23,22.27 -16.38,35.05 -0.46,5.17 -0.22,10.38 0.71,15.51 L 9.77,205.88 C 3.48,212.18 0,220.55 0,229.46 c 0,8.89 3.48,17.24 9.76,23.53 12.99,12.99 34.12,12.99 47.13,0 0,0 85.72,-85.7 120.43,-120.45 5.45,0.74 10.98,0.69 16.41,-0.17 11.48,-1.8 22.51,-7.06 31.37,-15.9 12.19,-12.19 17.66,-28.52 16.44,-44.44 z M 44.59,242.75 c -6.82,6.78 -17.78,6.78 -24.58,-0.02 -6.76,-6.74 -6.78,-17.76 0.02,-24.53 6.78,-6.76 17.74,-6.74 24.54,0 6.76,6.77 6.76,17.79 0.02,24.55 z" class="st1" style="fill:#2a2a2a;stroke:none;stroke-width:1.01898003;stroke-linecap:butt"/></g></g></g></g></svg>