<svg xmlns="http://www.w3.org/2000/svg" xmlns:svg="http://www.w3.org/2000/svg" id="svg21" width="512" height="512" class="st2" version="1.1" viewBox="0 0 384 384" xml:space="preserve" style="font-size:12px;overflow:visible;color-interpolation-filters:sRGB;fill:none;fill-rule:evenodd;stroke-linecap:square;stroke-miterlimit:3"><metadata id="metadata27"/><style id="style2" type="text/css">.st1{fill:#2a2a2a;stroke:none;stroke-linecap:butt;stroke-width:.758743}.st2{fill:none;fill-rule:evenodd;font-size:12px;overflow:visible;stroke-linecap:square;stroke-miterlimit:3}</style><g id="g19" transform="translate(-2.146535,0.843915)"><title id="title4">页-1</title><g id="group1090-1"><title id="title6">工作表.1090</title><g id="shape1091-2" transform="translate(53.4533,-51.0236)"><title id="title8">工作表.1091</title><path id="path10" d="M 168.01,384 H 5.66 C 2.53,384 0,381.47 0,378.34 V 215.99 c 0,-3.13 2.53,-5.66 5.66,-5.66 h 162.35 c 3.13,0 5.66,2.53 5.66,5.66 v 162.35 c 0,3.13 -2.53,5.66 -5.66,5.66 z M 11.32,372.68 H 162.35 V 221.65 H 11.32 Z" class="st1" style="fill:#2a2a2a;stroke:none;stroke-width:.75874299;stroke-linecap:butt"/></g><g id="shape1092-4" transform="translate(161.17,-160.994)"><title id="title13">工作表.1092</title><path id="path15" d="M 168.01,384 H 5.66 C 2.53,384 0,381.47 0,378.34 V 215.99 c 0,-3.13 2.53,-5.66 5.66,-5.66 h 162.35 c 3.13,0 5.66,2.53 5.66,5.66 v 162.35 c 0,3.13 -2.53,5.66 -5.66,5.66 z M 11.32,372.68 H 162.35 V 221.65 H 11.32 Z" class="st1" style="fill:#2a2a2a;stroke:none;stroke-width:.75874299;stroke-linecap:butt"/></g></g></g></svg>