<svg xmlns="http://www.w3.org/2000/svg" xmlns:svg="http://www.w3.org/2000/svg" id="svg29" width="512" height="512" class="st3" version="1.1" viewBox="0 0 384 384" xml:space="preserve" style="font-size:12px;overflow:visible;color-interpolation-filters:sRGB;fill:none;fill-rule:evenodd;stroke-linecap:square;stroke-miterlimit:3"><metadata id="metadata35"/><style id="style2" type="text/css">.st1,.st2{fill:#2a2a2a;stroke:#2a2a2a;stroke-linecap:butt;stroke-width:1.37143}.st2{stroke-linecap:round;stroke-linejoin:round;stroke-width:.5}.st3{fill:none;fill-rule:evenodd;font-size:12px;overflow:visible;stroke-linecap:square;stroke-miterlimit:3}</style><g id="g27" transform="translate(2.833615,54.417725)"><title id="title4">页-1</title><g id="group120-1"><title id="title6">工作表.120</title><g id="group121-2" transform="translate(28.3465,-17.0079)"><title id="title8">工作表.121</title><g id="shape122-3"><title id="title10">工作表.122</title><path id="path12" d="M 210.25,43.2 H 111.39 C 49.97,43.2 0,93.17 0,154.59 0,216.01 49.97,265.98 111.39,265.98 h 98.86 c 61.42,0 111.39,-49.97 111.39,-111.39 C 321.64,93.17 271.67,43.2 210.25,43.2 Z m 0,202.1 h -98.86 c -50.02,0 -90.71,-40.69 -90.71,-90.71 0,-50.02 40.69,-90.72 90.71,-90.72 h 98.86 c 50.02,0 90.71,40.7 90.71,90.72 0,50.02 -40.69,90.71 -90.71,90.71 z" class="st1" style="fill:#2a2a2a;stroke:#2a2a2a;stroke-width:1.37143004;stroke-linecap:butt"/></g><g id="shape123-5" transform="rotate(90,112.987,252.313)"><title id="title15">工作表.123</title><path id="path17" d="M 74.72,192.22 26.23,151.68 C 15.83,142.98 0,150.38 0,163.94 v 81.08 c 0,13.56 15.83,20.96 26.23,12.26 l 48.49,-40.54 c 7.64,-6.39 7.64,-18.13 0,-24.52 z" class="st1" style="fill:#2a2a2a;stroke:#2a2a2a;stroke-width:1.37143004;stroke-linecap:butt"/></g></g><g id="shape124-7" transform="translate(129.502,-155.906)"><title id="title21">工作表.124</title><rect id="rect23" width="119.327" height="23.134" x="0" y="242.846" class="st2" rx="11.567" ry="11.567" style="fill:#2a2a2a;stroke:#2a2a2a;stroke-width:.5;stroke-linecap:round;stroke-linejoin:round"/></g></g></g></svg>