<svg xmlns="http://www.w3.org/2000/svg" xmlns:svg="http://www.w3.org/2000/svg" id="svg16" width="512" height="512" class="st2" version="1.1" viewBox="0 0 384.001 383.999" xml:space="preserve" style="font-size:12px;overflow:visible;color-interpolation-filters:sRGB;fill:none;fill-rule:evenodd;stroke-linecap:square;stroke-miterlimit:3"><metadata id="metadata22"/><style id="style2" type="text/css">.st1{fill:#2a2a2a;stroke:none;stroke-linecap:butt;stroke-width:6.12}.st2{fill:none;fill-rule:evenodd;font-size:12px;overflow:visible;stroke-linecap:square;stroke-miterlimit:3}</style><g id="g14" transform="matrix(1.7509485,0,0,1.7509485,-7.1397229,13.491931)"><title id="title4">页-1</title><g id="group980-1"><title id="title6">工作表.980</title><g id="shape989-2" transform="translate(6.64767,-19.6008)"><title id="title8">工作表.989</title><path id="path10" d="m 213.87,204.17 c -16.44,0 -21.63,-35.69 -28.2,-80.89 -3.13,-21.47 -8.89,-61.1 -14.53,-65.83 -5.63,4.73 -11.4,44.36 -14.52,65.83 -6.57,45.2 -11.76,80.89 -28.21,80.89 -16.43,0 -21.61,-35.69 -28.18,-80.88 C 97.11,101.82 91.35,62.21 85.72,57.45 80.08,62.2 74.32,101.82 71.2,123.29 64.63,168.48 59.44,204.17 43.01,204.17 26.58,204.17 21.39,168.48 14.82,123.28 11.64,101.42 5.73,60.73 0,57.22 L 0.31,38.93 c 16.43,0 21.62,35.7 28.19,80.89 3.12,21.46 8.88,61.08 14.5,65.84 5.64,-4.76 11.4,-44.37 14.52,-65.83 6.57,-45.2 11.76,-80.9 28.19,-80.9 16.43,0 21.62,35.7 28.19,80.9 3.12,21.46 8.88,61.07 14.51,65.83 5.63,-4.74 11.4,-44.37 14.52,-65.84 6.57,-45.19 11.76,-80.89 28.2,-80.89 16.44,0 21.63,35.7 28.21,80.9 3.18,21.86 9.1,62.56 14.83,66.06 z" class="st1" style="fill:#2a2a2a;stroke:none;stroke-width:6.11999989;stroke-linecap:butt"/></g></g></g></svg>