<svg xmlns="http://www.w3.org/2000/svg" xmlns:svg="http://www.w3.org/2000/svg" id="svg16" width="512" height="512" class="st2" version="1.1" viewBox="0 0 384 383.999" xml:space="preserve" style="font-size:12px;overflow:visible;color-interpolation-filters:sRGB;fill:none;fill-rule:evenodd;stroke-linecap:square;stroke-miterlimit:3"><metadata id="metadata22"/><style id="style2" type="text/css">.st1{fill:#2a2a2a;stroke:none;stroke-linecap:butt;stroke-width:6.12}.st2{fill:none;fill-rule:evenodd;font-size:12px;overflow:visible;stroke-linecap:square;stroke-miterlimit:3}</style><g id="g14" transform="matrix(1.4698946,0,0,1.4698946,-4.4957576,42.141352)"><title id="title4">页-1</title><g id="group990-1" transform="translate(18.8759)"><title id="title6">工作表.990</title><g id="shape992-2" transform="translate(-12.7559,-27.6482)"><title id="title8">工作表.992</title><path id="path10" d="m 161.01,130.5 c 5.95,0 4.25,37.1 10.49,37.1 6.23,0 3.68,-20.79 11.62,-20.79 7.94,0 5.95,36.39 13.04,36.39 7.08,0 7.65,-44.82 15.02,-44.82 7.37,0 5.39,19.36 12.19,19.36 6.8,0 5.95,-27.42 17.29,-27.6 0.85,0 1.99,0 2.84,0 6.8,-0.18 10.77,-0.18 10.77,-0.18 0.56,0 0.85,-0.18 0.85,-0.18 0,-0.18 -0.29,-0.36 -0.85,-0.36 0,0 -3.97,-0.18 -10.77,-0.18 -0.85,0 -1.7,0 -2.56,0 -11.33,0 -10.77,-27.78 -17.29,-27.78 -6.8,0 -4.82,19.36 -12.19,19.36 -7.37,0 -7.65,-44.82 -15.02,-44.82 -7.09,0 -5.1,36.39 -13.04,36.39 -7.94,0 -5.38,-20.79 -11.62,-20.79 -6.24,0 -4.82,37.1 -10.49,37.1 -9.64,0 -9.07,-22.94 -14.46,-22.94 -5.66,0 -3.96,22.59 -9.92,22.77 -3.11,0 -14.45,0 -14.45,0 -10.21,0 -11.06,-35.86 -16.73,-35.86 -5.67,0 -5.38,14.7 -11.34,14.7 -5.95,0 -5.67,-34.95 -11.9,-34.95 -6.24,0 -3.69,17.03 -11.62,17.03 -7.94,0 -5.96,-34.42 -13.33,-34.42 -7.08,0 -7.65,60.05 -15.02,60.05 -7.37,0 -3.97,-29.04 -10.77,-29.04 -6.81,0 -5.95,42.84 -17.29,43.02 -0.85,0 -1.7,0 -2.55,0 -6.81,0.18 -10.78,0.18 -10.78,0.18 -0.56,0 -1.13,0.18 -1.13,0.36 0,0.18 0.28,0.36 0.85,0.36 0,0 3.97,0.18 10.77,0.18 0.85,0 1.7,0 2.84,0 11.34,0.18 10.48,43.02 17.29,43.02 6.8,0 3.4,-29.04 10.77,-29.04 7.37,0 7.65,60.05 15.02,60.05 7.09,0 5.11,-34.59 13.04,-34.59 7.94,0 5.39,17.03 11.62,17.03 6.24,0 5.96,-34.96 11.91,-34.96 5.95,0 5.67,14.7 11.34,14.7 5.67,0 6.52,-35.85 16.72,-35.85 1.7,0 11.63,0 14.46,0 5.95,0.36 4.25,22.76 9.92,22.76 5.67,0.18 5.1,-22.76 14.46,-22.76 z" class="st1" style="fill:#2a2a2a;stroke:none;stroke-width:6.11999989;stroke-linecap:butt"/></g></g></g></svg>