<svg xmlns="http://www.w3.org/2000/svg" xmlns:svg="http://www.w3.org/2000/svg" id="svg21" width="512" height="512" class="st3" version="1.1" viewBox="0 0 384 383.999" xml:space="preserve" style="font-size:12px;overflow:visible;color-interpolation-filters:sRGB;fill:none;fill-rule:evenodd;stroke-linecap:square;stroke-miterlimit:3"><metadata id="metadata27"/><style id="style2" type="text/css">.st1,.st2{fill:#d50f25;stroke:none;stroke-linecap:butt;stroke-width:1.37143}.st2{stroke-linecap:round;stroke-linejoin:round;stroke-width:.5}.st3{fill:none;fill-rule:evenodd;font-size:12px;overflow:visible;stroke-linecap:square;stroke-miterlimit:3}</style><g id="g19" transform="translate(-1.371415,57.64112)"><title id="title4">页-1</title><g id="group2-1" transform="translate(1.37143,-1.37143)"><title id="title6">工作表.2</title><g id="shape3-2"><title id="title8">工作表.3</title><path id="path10" d="M 251.01,2.74 H 132.99 C 59.66,2.74 0,62.4 0,135.73 0,209.06 59.66,268.72 132.99,268.72 H 251.01 C 324.34,268.72 384,209.06 384,135.73 384,62.4 324.34,2.74 251.01,2.74 Z m 0,241.3 H 132.99 c -59.72,0 -108.3,-48.59 -108.3,-108.31 0,-59.72 48.58,-108.3 108.3,-108.3 h 118.02 c 59.72,0 108.3,48.58 108.3,108.3 0,59.72 -48.58,108.31 -108.3,108.31 z" class="st1" style="fill:#d50f25;stroke:none;stroke-width:1.37143004;stroke-linecap:butt"/></g><g id="shape5-4" transform="translate(142.616,-85.9232)"><title id="title13">工作表.5</title><rect id="rect15" width="98.329" height="98.329" x="0" y="170.394" class="st2" rx="14.173" ry="14.173" style="fill:#d50f25;stroke:none;stroke-width:.5;stroke-linecap:round;stroke-linejoin:round"/></g></g></g></svg>